<?xml version="1.0" encoding="UTF-8" standalone="no"?>
<svg
   height="24"
   viewBox="0 -960 960 960"
   width="24"
   version="1.1"
   id="svg1"
   sodipodi:docname="add_location.svg"
   inkscape:version="1.3.2 (091e20e, 2023-11-25, custom)"
   xmlns:inkscape="http://www.inkscape.org/namespaces/inkscape"
   xmlns:sodipodi="http://sodipodi.sourceforge.net/DTD/sodipodi-0.dtd"
   xmlns="http://www.w3.org/2000/svg"
   xmlns:svg="http://www.w3.org/2000/svg">
  <defs
     id="defs1" />
  <sodipodi:namedview
     id="namedview1"
     pagecolor="#ffffff"
     bordercolor="#000000"
     borderopacity="0.25"
     inkscape:showpageshadow="2"
     inkscape:pageopacity="0.0"
     inkscape:pagecheckerboard="0"
     inkscape:deskcolor="#d1d1d1"
     inkscape:zoom="20.5"
     inkscape:cx="12"
     inkscape:cy="12"
     inkscape:window-width="1366"
     inkscape:window-height="705"
     inkscape:window-x="-8"
     inkscape:window-y="-8"
     inkscape:window-maximized="1"
     inkscape:current-layer="svg1" />
  <path
     d="M480-301q99-80 149.5-154T680-594q0-56-20.5-95.5t-50.5-64Q579-778 544-789t-64-11q-29 0-64 11t-65 35.5q-30 24.5-50.5 64T280-594q0 65 50.5 139T480-301Zm0 101Q339-304 269.5-402T200-594q0-71 25.5-124.5T291-808q40-36 90-54t99-18q49 0 99 18t90 54q40 36 65.5 89.5T760-594q0 94-69.5 192T480-200Zm0-320q33 0 56.5-23.5T560-600q0-33-23.5-56.5T480-680q-33 0-56.5 23.5T400-600q0 33 23.5 56.5T480-520ZM200-80v-80h560v80H200Zm280-514Z"
     id="path1" />
  <path
     style="fill:#f5f5dc;stroke-width:1"
     d="M 11.465141,18.556038 C 9.9217146,17.374004 8.1488803,15.707639 7.2926673,14.634146 6.1423217,13.19188 5.4135313,11.738801 5.1464981,10.355067 5.0705862,9.9617005 5.0454606,9.6410585 5.0459976,9.0725215 5.0474767,7.5064761 5.3997068,6.3118244 6.2270604,5.0667351 6.6251805,4.4676018 7.4657498,3.6264053 8.0625993,3.2298268 10.446583,1.6457812 13.562687,1.6434153 15.925473,3.2238571 17.53944,4.3034218 18.63712,6.074253 18.900762,8.02374 c 0.07863,0.5813941 0.06667,1.6621259 -0.02444,2.209263 -0.229581,1.378693 -1.004523,2.948812 -2.172054,4.400822 -0.998519,1.241816 -2.846684,2.956212 -4.533538,4.205401 L 12,18.96566 Z m 1.179242,-2.580428 c 0.746606,-0.633246 1.986942,-1.87517 2.460263,-2.463415 1.004808,-1.248775 1.602241,-2.384144 1.822458,-3.463415 C 17.041847,9.4864312 17.00796,8.2468522 16.862989,7.7034605 16.397538,5.9588199 15.082283,4.6452289 13.317073,4.1620285 12.874482,4.0408756 12.752405,4.028499 12,4.028499 c -0.752405,0 -0.874482,0.012377 -1.317073,0.1335295 C 8.9177164,4.6452289 7.6024624,5.9588199 7.1370111,7.7034605 6.9921965,8.2462659 6.9581786,9.4861502 7.0726641,10.04878 c 0.3714182,1.825306 1.8201701,3.811463 4.3907509,6.019471 0.268292,0.230451 0.514363,0.413638 0.546822,0.407083 0.03246,-0.0066 0.317825,-0.231432 0.634146,-0.499724 z"
     id="path2"
     transform="matrix(40,0,0,40,0,-960)" />
  <path
     style="fill:#f5f5dc;stroke-width:1"
     d="M 11.384506,10.863053 C 10.84053,10.677626 10.37055,10.234261 10.159391,9.7073171 10.075054,9.4968525 10.051815,9.3391394 10.051578,8.9756098 10.051302,8.5543253 10.06531,8.4833692 10.205656,8.195122 10.403583,7.7886143 10.785574,7.4054852 11.192854,7.2049818 11.485998,7.0606676 11.547422,7.0487805 12,7.0487805 c 0.452928,0 0.513858,0.011816 0.808239,0.156739 1.187245,0.584479 1.53184,2.0059716 0.730199,3.0121525 -0.517769,0.649877 -1.38151,0.90868 -2.153932,0.645381 z"
     id="path3"
     transform="matrix(40,0,0,40,0,-960)" />
  <path
     style="fill:#f5f5dc;stroke-width:1"
     d="m 5,21 v -1 h 7 7 v 1 1 H 12 5 Z"
     id="path4"
     transform="matrix(40,0,0,40,0,-960)" />
</svg>
