<?xml version="1.0" encoding="UTF-8" standalone="no"?>
<svg
   height="24"
   viewBox="0 -960 960 960"
   width="24"
   version="1.1"
   id="svg1"
   sodipodi:docname="info.svg"
   inkscape:version="1.3.2 (091e20e, 2023-11-25, custom)"
   xmlns:inkscape="http://www.inkscape.org/namespaces/inkscape"
   xmlns:sodipodi="http://sodipodi.sourceforge.net/DTD/sodipodi-0.dtd"
   xmlns="http://www.w3.org/2000/svg"
   xmlns:svg="http://www.w3.org/2000/svg">
  <defs
     id="defs1" />
  <sodipodi:namedview
     id="namedview1"
     pagecolor="#ffffff"
     bordercolor="#000000"
     borderopacity="0.25"
     inkscape:showpageshadow="2"
     inkscape:pageopacity="0.0"
     inkscape:pagecheckerboard="0"
     inkscape:deskcolor="#d1d1d1"
     inkscape:zoom="20.5"
     inkscape:cx="12"
     inkscape:cy="12"
     inkscape:window-width="1366"
     inkscape:window-height="705"
     inkscape:window-x="-8"
     inkscape:window-y="-8"
     inkscape:window-maximized="1"
     inkscape:current-layer="svg1" />
  <path
     d="M440-280h80v-240h-80v240Zm40-320q17 0 28.5-11.5T520-640q0-17-11.5-28.5T480-680q-17 0-28.5 11.5T440-640q0 17 11.5 28.5T480-600Zm0 520q-83 0-156-31.5T197-197q-54-54-85.5-127T80-480q0-83 31.5-156T197-763q54-54 127-85.5T480-880q83 0 156 31.5T763-763q54 54 85.5 127T880-480q0 83-31.5 156T763-197q-54 54-127 85.5T480-80Zm0-80q134 0 227-93t93-227q0-134-93-227t-227-93q-134 0-227 93t-93 227q0 134 93 227t227 93Zm0-320Z"
     id="path1" />
  <path
     style="fill:#f5f5dc;stroke-width:1"
     d="M 11.365854,21.944455 C 8.9116161,21.813835 6.5186813,20.696256 4.7790505,18.868201 1.686995,15.61898 1.142925,10.726292 3.4463904,6.8839151 4.9938805,4.3025701 7.6477068,2.5396218 10.613047,2.1230746 c 0.731097,-0.1026987 2.042809,-0.1026987 2.773906,0 4.535971,0.6371769 8.078315,4.3274169 8.537827,8.8942884 0.408131,4.05622 -1.735441,7.981534 -5.38163,9.854852 -1.611979,0.828193 -3.278354,1.173306 -5.177296,1.07224 z m 2.362856,-2.087839 c 1.188597,-0.257254 2.358082,-0.801429 3.2469,-1.510823 0.668495,-0.533549 1.512277,-1.494977 1.951716,-2.223842 1.463418,-2.427261 1.463221,-5.821103 -4.87e-4,-8.2439022 C 17.940761,6.2458222 16.310981,4.9283391 14.585366,4.3684765 13.67827,4.0741765 13.321134,4.0270066 12,4.0270066 c -1.078921,0 -1.27658,0.012492 -1.714525,0.1083553 -2.0417774,0.4469325 -3.7715004,1.6217676 -4.9785118,3.3814264 -1.7772497,2.5909887 -1.7772497,6.3754347 0,8.9664237 1.2090341,1.762608 2.9996275,2.975802 4.9672758,3.365517 0.73197,0.144975 0.701335,0.142849 1.872102,0.129933 0.900941,-0.0099 1.154891,-0.02952 1.582369,-0.122046 z"
     id="path2"
     transform="matrix(40,0,0,40,0,-960)" />
  <path
     style="fill:#f5f5dc;stroke-width:1"
     d="m 11,14 v -2.97561 h 1 1 V 14 16.97561 h -1 -1 z"
     id="path3"
     transform="matrix(40,0,0,40,0,-960)" />
  <path
     style="fill:#f5f5dc;stroke-width:1"
     d="M 11.609756,8.8831286 C 11.232453,8.7084429 11.04878,8.4192924 11.04878,8 c 0,-0.4192924 0.183673,-0.7084429 0.560976,-0.8831286 0.475638,-0.2202134 1.1086,0.029252 1.28958,0.5082554 0.06668,0.1764865 0.06668,0.5732599 0,0.7497464 -0.18098,0.479003 -0.813942,0.7284688 -1.28958,0.5082554 z"
     id="path4"
     transform="matrix(40,0,0,40,0,-960)" />
</svg>
