<?xml version="1.0" encoding="UTF-8" standalone="no"?>
<svg
   height="24"
   viewBox="0 -960 960 960"
   width="24"
   version="1.1"
   id="svg1"
   sodipodi:docname="profile_pic.svg"
   inkscape:version="1.3.2 (091e20e, 2023-11-25, custom)"
   xmlns:inkscape="http://www.inkscape.org/namespaces/inkscape"
   xmlns:sodipodi="http://sodipodi.sourceforge.net/DTD/sodipodi-0.dtd"
   xmlns="http://www.w3.org/2000/svg"
   xmlns:svg="http://www.w3.org/2000/svg">
  <defs
     id="defs1" />
  <sodipodi:namedview
     id="namedview1"
     pagecolor="#ffffff"
     bordercolor="#000000"
     borderopacity="0.25"
     inkscape:showpageshadow="2"
     inkscape:pageopacity="0.0"
     inkscape:pagecheckerboard="0"
     inkscape:deskcolor="#d1d1d1"
     inkscape:zoom="14.495689"
     inkscape:cx="8.6922395"
     inkscape:cy="12.693429"
     inkscape:window-width="1366"
     inkscape:window-height="705"
     inkscape:window-x="-8"
     inkscape:window-y="-8"
     inkscape:window-maximized="1"
     inkscape:current-layer="svg1" />
  <path
     style="fill:#f5f5dc;fill-opacity:1;stroke-width:40"
     d="m 4.3698871,-99.289127 0.9530676,-102.096113 7.7770223,-21.46748 c 14.82471,-40.92176 44.279423,-77.08648 79.079695,-97.09461 24.557508,-14.1192 85.562358,-39.94285 128.002008,-54.18389 171.95762,-57.70213 354.12213,-57.19042 526.99471,1.48043 39.10082,13.27028 100.10713,39.3096 123.19258,52.58222 34.32471,19.73452 64.74535,57.11719 79.42318,97.59981 7.61173,20.99366 7.64843,21.51941 8.59743,123.179753 L 959.3427,2.8069799 H 481.37974 3.4167952 Z M 842.03965,-147.76641 c -0.0659,-32.09008 -4.22494,-46.60355 -17.25944,-60.26833 -13.58592,-14.24261 -88.43011,-46.31691 -148.82664,-63.77934 -151.50603,-43.80481 -310.65234,-35.50827 -458.91009,23.92364 -86.15317,34.53618 -96.3878,45.23551 -96.3878,100.76415 v 29.47456 h 360.72406 360.72405 z"
     id="path2" />
  <path
     style="fill:#f5f5dc;fill-opacity:1;stroke-width:40"
     d="m 456.47252,-482.40819 c -92.44325,-7.09381 -178.00323,-79.98235 -204.87857,-174.536 -9.50618,-33.44491 -9.50618,-92.55732 0,-126.00223 23.21961,-81.69197 90.89756,-148.5313 171.36892,-169.24546 32.28444,-8.31035 84.42552,-8.32741 116.83372,-0.0383 80.24742,20.52524 148.1529,87.60446 171.36895,169.28369 9.50618,33.44492 9.50618,92.55733 0,126.00224 -17.40309,61.22807 -60.60101,115.81677 -116.84661,147.65762 -38.5536,21.82532 -85.19081,30.91898 -137.84641,26.87838 z m 76.92026,-127.06757 c 62.39944,-30.25863 86.82953,-105.83485 54.66778,-169.11858 -9.15517,-18.0143 -34.29345,-41.91101 -54.66778,-51.96776 -15.78627,-7.7921 -19.39424,-8.37291 -52.01304,-8.37291 -32.6188,0 -36.22677,0.58061 -52.01306,8.37291 -82.67156,40.80664 -93.29157,154.58902 -19.51334,209.06566 23.93318,17.6719 40.38613,22.26281 75.90767,21.18063 26.4757,-0.80653 32.98806,-2.05894 47.63177,-9.15995 z"
     id="path3" />
</svg>
