<?xml version="1.0" encoding="UTF-8" standalone="no"?>
<svg
   height="24"
   viewBox="0 -960 960 960"
   width="24"
   version="1.1"
   id="svg1"
   sodipodi:docname="search_icon.svg"
   inkscape:version="1.3.2 (091e20e, 2023-11-25, custom)"
   xmlns:inkscape="http://www.inkscape.org/namespaces/inkscape"
   xmlns:sodipodi="http://sodipodi.sourceforge.net/DTD/sodipodi-0.dtd"
   xmlns="http://www.w3.org/2000/svg"
   xmlns:svg="http://www.w3.org/2000/svg">
  <defs
     id="defs1" />
  <sodipodi:namedview
     id="namedview1"
     pagecolor="#ffffff"
     bordercolor="#000000"
     borderopacity="0.25"
     inkscape:showpageshadow="2"
     inkscape:pageopacity="0.0"
     inkscape:pagecheckerboard="0"
     inkscape:deskcolor="#d1d1d1"
     inkscape:zoom="21.208333"
     inkscape:cx="12.023576"
     inkscape:cy="12.023576"
     inkscape:window-width="1366"
     inkscape:window-height="705"
     inkscape:window-x="-8"
     inkscape:window-y="-8"
     inkscape:window-maximized="1"
     inkscape:current-layer="svg1" />
  <path
     style="display:inline;fill:#f5f5dc;stroke-width:0.999998;fill-opacity:1"
     d="m 16.471983,17.751327 c -1.702688,-1.698004 -3.127394,-3.08728 -3.166012,-3.08728 -0.03862,0 -0.274647,0.128487 -0.524506,0.285527 -1.056261,0.663873 -2.020284,0.940406 -3.27835,0.940406 -1.076227,0 -1.9769557,-0.200223 -2.8547849,-0.634592 C 6.0019567,14.935549 5.4585819,14.527241 4.8801572,13.92673 3.958705,12.970094 3.4222931,11.946179 3.202674,10.724713 3.0984193,10.144874 3.0846687,8.8645613 3.1771242,8.345776 3.5697312,6.1427829 5.1190647,4.298104 7.2750719,3.4666473 8.0223183,3.1784742 8.301277,3.1379818 9.5481336,3.1366995 c 1.2013594,-0.00124 1.3421834,0.020458 2.1925344,0.337757 1.123896,0.4193694 2.213037,1.2376393 2.937941,2.2072724 0.507586,0.6789472 1.003642,1.8503307 1.145176,2.7042068 0.0816,0.4923136 0.06556,1.8950583 -0.02669,2.3336423 -0.143977,0.684514 -0.525454,1.562999 -0.985994,2.270599 l -0.214818,0.330059 3.134341,3.135953 3.134342,3.135953 -0.625649,0.624361 c -0.344107,0.343399 -0.635974,0.623854 -0.648593,0.623233 -0.01262,-6.18e-4 -1.416052,-1.390404 -3.11874,-3.088409 z m -5.778616,-3.83915 c 1.454552,-0.372012 2.639242,-1.488845 3.153719,-2.973081 l 0.155267,-0.447937 6.09e-4,-0.9901767 C 14.003631,8.4117077 13.980418,8.2781045 13.674255,7.6091839 13.258022,6.6997746 12.431674,5.8542284 11.50015,5.3845666 10.872138,5.0679318 10.697442,5.0326779 9.6424361,5.0096768 8.5083706,4.9849522 8.2689822,5.0246848 7.5769691,5.3524946 6.5743692,5.8274307 5.78297,6.6206816 5.3268629,7.6078658 5.0354247,8.2386455 4.9999293,8.4461083 4.9989305,9.524558 l -8.951e-4,0.966601 0.1707014,0.483889 c 0.3881311,1.100238 1.1620728,2.010653 2.17263,2.55574 0.7136759,0.384952 1.0803648,0.464496 2.163861,0.469393 0.6762432,0.0031 0.8956362,-0.01319 1.1881392,-0.088 z"
     id="path4"
     transform="matrix(40,0,0,40,0,-960)" />
</svg>
