<?xml version="1.0" encoding="UTF-8" standalone="no"?>
<svg
   height="24"
   viewBox="0 -960 960 960"
   width="24"
   version="1.1"
   id="svg1"
   sodipodi:docname="shopping_cart.svg"
   inkscape:version="1.3.2 (091e20e, 2023-11-25, custom)"
   xmlns:inkscape="http://www.inkscape.org/namespaces/inkscape"
   xmlns:sodipodi="http://sodipodi.sourceforge.net/DTD/sodipodi-0.dtd"
   xmlns="http://www.w3.org/2000/svg"
   xmlns:svg="http://www.w3.org/2000/svg">
  <defs
     id="defs1" />
  <sodipodi:namedview
     id="namedview1"
     pagecolor="#ffffff"
     bordercolor="#000000"
     borderopacity="0.25"
     inkscape:showpageshadow="2"
     inkscape:pageopacity="0.0"
     inkscape:pagecheckerboard="0"
     inkscape:deskcolor="#d1d1d1"
     inkscape:zoom="20.5"
     inkscape:cx="12"
     inkscape:cy="11.95122"
     inkscape:window-width="1366"
     inkscape:window-height="705"
     inkscape:window-x="-8"
     inkscape:window-y="-8"
     inkscape:window-maximized="1"
     inkscape:current-layer="svg1" />
  <path
     style="fill:#f5f5dc;stroke-width:40"
     d="m 255.51281,-2.2587561 c -23.42872,-7.9408859 -45.62534,-27.5280819 -57.36647,-50.6226319 -6.81426,-13.403368 -7.14345,-15.292372 -7.14345,-40.982102 0,-25.68968 0.32936,-27.57874 7.14345,-40.98203 9.1046,-17.90868 25.34402,-34.70998 42.65369,-44.12965 12.95503,-7.05004 14.78083,-7.39074 39.61136,-7.39074 24.83047,0 26.65632,0.34086 39.61138,7.39074 7.46952,4.06474 18.51507,12.4954 24.54556,18.73463 6.03053,6.23914 14.17919,17.66697 18.10806,25.39502 6.81423,13.40329 7.14354,15.29235 7.14354,40.98203 0,25.68972 -0.32949,27.578746 -7.14354,40.982102 -9.15241,18.002482 -25.43161,34.793664 -42.65362,43.995091 -12.12813,6.4798259 -16.00268,7.3250925 -36.2161,7.9007986 -12.44931,0.3552559 -25.18154,-0.2160327 -28.29386,-1.2731645 z"
     id="path2" />
  <path
     style="fill:#f5f5dc;stroke-width:40"
     d="m 719.53174,-2.2587561 c -23.4287,-7.9408859 -45.62528,-27.5280819 -57.36642,-50.6226319 -6.81425,-13.403368 -7.14352,-15.292372 -7.14352,-40.982102 0,-25.68968 0.32945,-27.57874 7.14352,-40.98203 9.10461,-17.90868 25.34405,-34.70998 42.65359,-44.12965 12.95508,-7.05004 14.78094,-7.39074 39.6114,-7.39074 24.83051,0 26.65627,0.34086 39.61138,7.39074 7.46957,4.06474 18.51513,12.4954 24.54562,18.73463 6.0305,6.23914 14.1792,17.66697 18.10804,25.39502 6.81422,13.40329 7.14354,15.29235 7.14354,40.98203 0,25.68972 -0.32949,27.578746 -7.14354,40.982102 -9.1524,18.002482 -25.43161,34.793664 -42.65366,43.995091 -12.12808,6.4798259 -16.00269,7.3250925 -36.21606,7.9007986 -12.44936,0.3552559 -25.18157,-0.2160327 -28.29389,-1.2731645 z"
     id="path3" />
  <path
     style="fill:#f5f5dc;stroke-width:40"
     d="m 255.00569,-242.5212 c -39.35302,-11.2072 -71.09977,-58.42659 -66.50083,-98.91139 2.01645,-17.75047 5.41957,-25.38242 41.44785,-92.95472 17.79278,-33.37117 32.35056,-61.63944 32.35056,-62.81839 0,-1.17913 -37.3483,-83.73659 -82.99632,-183.46138 L 96.310539,-861.98485 H 49.155237 2 V -909.99248 -958 h 75.281682 75.281698 l 98.57172,216.03415 98.57182,216.03409 h 163.89123 163.89122 l 90.50383,-168.02656 90.50381,-168.02653 h 50.72544 c 42.98999,0 50.53653,0.50924 49.48678,3.33956 -0.68118,1.83675 -47.04476,89.04079 -103.03006,193.78671 -63.99195,119.72628 -105.36476,194.65597 -111.41426,201.78134 -10.37983,12.22566 -22.043,20.73977 -36.87517,26.91894 -8.38124,3.49155 -28.6314,4.0225 -193.41559,5.07082 l -184.05429,1.17086 -24.75428,46.5745 c -13.61479,25.61591 -24.75419,47.48284 -24.75419,48.59311 0,1.1195 124.03562,2.01864 278.41134,2.01864 h 278.41138 v 46.83653 46.83668 l -285.76778,-0.21118 c -227.02471,-0.16802 -287.96581,-0.83542 -296.46064,-3.25451 z"
     id="path4" />
</svg>
